<svg id="SvgjsSvg2202" width="653.9375" height="1790.200023651123" xmlns="http://www.w3.org/2000/svg" version="1.1" xmlns:xlink="http://www.w3.org/1999/xlink" xmlns:svgjs="http://svgjs.com/svgjs"><defs id="SvgjsDefs2203"><marker id="SvgjsMarker2389" markerWidth="16" markerHeight="12" refX="16" refY="6" viewBox="0 0 16 12" orient="auto" markerUnits="userSpaceOnUse"><path id="SvgjsPath2390" d="M0,2 L14,6 L0,11 L0,2" fill="#323232" stroke="#323232" stroke-width="2"></path></marker><marker id="SvgjsMarker2393" markerWidth="16" markerHeight="12" refX="16" refY="6" viewBox="0 0 16 12" orient="auto" markerUnits="userSpaceOnUse"><path id="SvgjsPath2394" d="M0,2 L14,6 L0,11 L0,2" fill="#323232" stroke="#323232" stroke-width="2"></path></marker><marker id="SvgjsMarker2397" markerWidth="16" markerHeight="12" refX="16" refY="6" viewBox="0 0 16 12" orient="auto" markerUnits="userSpaceOnUse"><path id="SvgjsPath2398" d="M0,2 L14,6 L0,11 L0,2" fill="#323232" stroke="#323232" stroke-width="2"></path></marker><marker id="SvgjsMarker2401" markerWidth="16" markerHeight="12" refX="16" refY="6" viewBox="0 0 16 12" orient="auto" markerUnits="userSpaceOnUse"><path id="SvgjsPath2402" d="M0,2 L14,6 L0,11 L0,2" fill="#323232" stroke="#323232" stroke-width="2"></path></marker><marker id="SvgjsMarker2405" markerWidth="16" markerHeight="12" refX="16" refY="6" viewBox="0 0 16 12" orient="auto" markerUnits="userSpaceOnUse"><path id="SvgjsPath2406" d="M0,2 L14,6 L0,11 L0,2" fill="#323232" stroke="#323232" stroke-width="2"></path></marker><marker id="SvgjsMarker2409" markerWidth="16" markerHeight="12" refX="16" refY="6" viewBox="0 0 16 12" orient="auto" markerUnits="userSpaceOnUse"><path id="SvgjsPath2410" d="M0,2 L14,6 L0,11 L0,2" fill="#323232" stroke="#323232" stroke-width="2"></path></marker><marker id="SvgjsMarker2413" markerWidth="16" markerHeight="12" refX="16" refY="6" viewBox="0 0 16 12" orient="auto" markerUnits="userSpaceOnUse"><path id="SvgjsPath2414" d="M0,2 L14,6 L0,11 L0,2" fill="#323232" stroke="#323232" stroke-width="2"></path></marker><marker id="SvgjsMarker2417" markerWidth="16" markerHeight="12" refX="16" refY="6" viewBox="0 0 16 12" orient="auto" markerUnits="userSpaceOnUse"><path id="SvgjsPath2418" d="M0,2 L14,6 L0,11 L0,2" fill="#323232" stroke="#323232" stroke-width="2"></path></marker><marker id="SvgjsMarker2421" markerWidth="16" markerHeight="12" refX="16" refY="6" viewBox="0 0 16 12" orient="auto" markerUnits="userSpaceOnUse"><path id="SvgjsPath2422" d="M0,2 L14,6 L0,11 L0,2" fill="#323232" stroke="#323232" stroke-width="2"></path></marker><marker id="SvgjsMarker2425" markerWidth="16" markerHeight="12" refX="16" refY="6" viewBox="0 0 16 12" orient="auto" markerUnits="userSpaceOnUse"><path id="SvgjsPath2426" d="M0,2 L14,6 L0,11 L0,2" fill="#323232" stroke="#323232" stroke-width="2"></path></marker><marker id="SvgjsMarker2429" markerWidth="16" markerHeight="12" refX="16" refY="6" viewBox="0 0 16 12" orient="auto" markerUnits="userSpaceOnUse"><path id="SvgjsPath2430" d="M0,2 L14,6 L0,11 L0,2" fill="#323232" stroke="#323232" stroke-width="2"></path></marker><marker id="SvgjsMarker2433" markerWidth="16" markerHeight="12" refX="16" refY="6" viewBox="0 0 16 12" orient="auto" markerUnits="userSpaceOnUse"><path id="SvgjsPath2434" d="M0,2 L14,6 L0,11 L0,2" fill="#323232" stroke="#323232" stroke-width="2"></path></marker><marker id="SvgjsMarker2437" markerWidth="16" markerHeight="12" refX="16" refY="6" viewBox="0 0 16 12" orient="auto" markerUnits="userSpaceOnUse"><path id="SvgjsPath2438" d="M0,2 L14,6 L0,11 L0,2" fill="#323232" stroke="#323232" stroke-width="2"></path></marker><marker id="SvgjsMarker2441" markerWidth="16" markerHeight="12" refX="16" refY="6" viewBox="0 0 16 12" orient="auto" markerUnits="userSpaceOnUse"><path id="SvgjsPath2442" d="M0,2 L14,6 L0,11 L0,2" fill="#323232" stroke="#323232" stroke-width="2"></path></marker><marker id="SvgjsMarker2495" markerWidth="16" markerHeight="12" refX="16" refY="6" viewBox="0 0 16 12" orient="auto" markerUnits="userSpaceOnUse"><path id="SvgjsPath2496" d="M0,2 L14,6 L0,11 L0,2" fill="#323232" stroke="#323232" stroke-width="2"></path></marker><marker id="SvgjsMarker2499" markerWidth="16" markerHeight="12" refX="16" refY="6" viewBox="0 0 16 12" orient="auto" markerUnits="userSpaceOnUse"><path id="SvgjsPath2500" d="M0,2 L14,6 L0,11 L0,2" fill="#323232" stroke="#323232" stroke-width="2"></path></marker><marker id="SvgjsMarker2517" markerWidth="16" markerHeight="12" refX="16" refY="6" viewBox="0 0 16 12" orient="auto" markerUnits="userSpaceOnUse"><path id="SvgjsPath2518" d="M0,2 L14,6 L0,11 L0,2" fill="#323232" stroke="#323232" stroke-width="2"></path></marker><marker id="SvgjsMarker2521" markerWidth="16" markerHeight="12" refX="16" refY="6" viewBox="0 0 16 12" orient="auto" markerUnits="userSpaceOnUse"><path id="SvgjsPath2522" d="M0,2 L14,6 L0,11 L0,2" fill="#323232" stroke="#323232" stroke-width="2"></path></marker><marker id="SvgjsMarker2525" markerWidth="16" markerHeight="12" refX="16" refY="6" viewBox="0 0 16 12" orient="auto" markerUnits="userSpaceOnUse"><path id="SvgjsPath2526" d="M0,2 L14,6 L0,11 L0,2" fill="#323232" stroke="#323232" stroke-width="2"></path></marker><marker id="SvgjsMarker2529" markerWidth="16" markerHeight="12" refX="16" refY="6" viewBox="0 0 16 12" orient="auto" markerUnits="userSpaceOnUse"><path id="SvgjsPath2530" d="M0,2 L14,6 L0,11 L0,2" fill="#323232" stroke="#323232" stroke-width="2"></path></marker><marker id="SvgjsMarker2551" markerWidth="16" markerHeight="12" refX="16" refY="6" viewBox="0 0 16 12" orient="auto" markerUnits="userSpaceOnUse"><path id="SvgjsPath2552" d="M0,2 L14,6 L0,11 L0,2" fill="#323232" stroke="#323232" stroke-width="2"></path></marker><marker id="SvgjsMarker2555" markerWidth="16" markerHeight="12" refX="16" refY="6" viewBox="0 0 16 12" orient="auto" markerUnits="userSpaceOnUse"><path id="SvgjsPath2556" d="M0,2 L14,6 L0,11 L0,2" fill="#323232" stroke="#323232" stroke-width="2"></path></marker></defs><g id="SvgjsG2204" transform="translate(52.262481689453125,766.199951171875)"><path id="SvgjsPath2205" d="M 0 4Q 0 0 4 0L 408.5 0Q 412.5 0 412.5 4L 412.5 274Q 412.5 278 408.5 278L 4 278Q 0 278 0 274Z" stroke="#323232" stroke-width="2" fill-opacity="1" fill="#ffffff"></path><g id="SvgjsG2206"><text id="SvgjsText2207" font-family="微软雅黑" text-anchor="middle" font-size="13px" width="225" fill="#323232" font-weight="400" align="middle" anchor="middle" family="微软雅黑" size="13px" weight="400" font-style="" y="10.907142857142858" transform="rotate(0)"><tspan id="SvgjsTspan2208" dy="16" x="206.5"><tspan id="SvgjsTspan2209" style="text-decoration:;">initializeBean()方法,完成</tspan><tspan id="SvgjsTspan2210" style="text-decoration:;font-size: inherit;">bean的初始化</tspan></tspan></text></g></g><g id="SvgjsG2211" transform="translate(25.012481689453125,360.5999584197998)"><path id="SvgjsPath2212" d="M 0 4Q 0 0 4 0L 445.75 0Q 449.75 0 449.75 4L 449.75 850.200029373169Q 449.75 854.200029373169 445.75 854.200029373169L 4 854.200029373169Q 0 854.200029373169 0 850.200029373169Z" stroke="#323232" stroke-width="2" fill-opacity="1" fill="#ffffcc"></path><g id="SvgjsG2213"><text id="SvgjsText2214" font-family="微软雅黑" text-anchor="middle" font-size="13px" width="0" fill="#323232" font-weight="400" align="middle" anchor="middle" family="微软雅黑" size="13px" weight="400" font-style="" y="52.0642878123692" transform="rotate(0)"></text></g></g><g id="SvgjsG2215" transform="translate(37.39997863769531,1481.3999633789062)"><path id="SvgjsPath2216" d="M 0 4Q 0 0 4 0L 420.9750061035156 0Q 424.9750061035156 0 424.9750061035156 4L 424.9750061035156 167.00006103515625Q 424.9750061035156 171.00006103515625 420.9750061035156 171.00006103515625L 4 171.00006103515625Q 0 171.00006103515625 0 167.00006103515625Z" stroke="#323232" stroke-width="2" fill-opacity="1" fill="#ffcc99"></path><g id="SvgjsG2217"><text id="SvgjsText2218" font-family="微软雅黑" text-anchor="middle" font-size="13px" width="131" fill="#323232" font-weight="400" align="middle" anchor="middle" family="微软雅黑" size="13px" weight="400" font-style="" y="3.2642900739397307" transform="rotate(0)"><tspan id="SvgjsTspan2219" dy="16" x="212.5"><tspan id="SvgjsTspan2220" style="text-decoration:;">调用容器的close()方法</tspan></tspan></text></g></g><g id="SvgjsG2221" transform="translate(86.38748168945312,559.199951171875)"><path id="SvgjsPath2222" d="M 0 4Q 0 0 4 0L 323 0Q 327 0 327 4L 327 195.39999389648438Q 327 199.39999389648438 323 199.39999389648438L 4 199.39999389648438Q 0 199.39999389648438 0 195.39999389648438Z" stroke="#323232" stroke-width="2" fill-opacity="1" fill="#b3ff66"></path><g id="SvgjsG2223"><text id="SvgjsText2224" font-family="微软雅黑" text-anchor="middle" font-size="13px" width="199" fill="#323232" font-weight="400" align="middle" anchor="middle" family="微软雅黑" size="13px" weight="400" font-style="" y="5.292856706891739" transform="rotate(0)"><tspan id="SvgjsTspan2225" dy="16" x="163.5"><tspan id="SvgjsTspan2226" style="text-decoration:;">populateBean()方法,完成自动注入</tspan></tspan></text></g></g><g id="SvgjsG2227" transform="translate(161.3249740600586,1679.199951171875)"><path id="SvgjsPath2228" d="M 0 4Q 0 0 4 0L 173.12501525878906 0Q 177.12501525878906 0 177.12501525878906 4L 177.12501525878906 82Q 177.12501525878906 86 173.12501525878906 86L 4 86Q 0 86 0 82Z" stroke="#323232" stroke-width="2" fill-opacity="1" fill="#ffffff"></path><g id="SvgjsG2229"><text id="SvgjsText2230" font-family="微软雅黑" text-anchor="middle" font-size="13px" width="26" fill="#323232" font-weight="400" align="middle" anchor="middle" family="微软雅黑" size="13px" weight="400" font-style="" y="-2.807142857142858" transform="rotate(0)"><tspan id="SvgjsTspan2231" dy="16" x="89"><tspan id="SvgjsTspan2232" style="text-decoration:;">图解</tspan></tspan></text></g></g><g id="SvgjsG2233" transform="translate(39.26249694824219,772.7999649047852)"><path id="SvgjsPath2234" d="M 0 4Q 0 0 4 0L 417.2499694824219 0Q 421.2499694824219 0 421.2499694824219 4L 421.2499694824219 414.80001068115234Q 421.2499694824219 418.80001068115234 417.2499694824219 418.80001068115234L 4 418.80001068115234Q 0 418.80001068115234 0 414.80001068115234Z" stroke="#323232" stroke-width="2" fill-opacity="1" fill="#e6ffcc"></path><g id="SvgjsG2235"><text id="SvgjsText2236" font-family="微软雅黑" text-anchor="middle" font-size="13px" width="186" fill="#323232" font-weight="400" align="middle" anchor="middle" family="微软雅黑" size="13px" weight="400" font-style="" y="20.964286477225166" transform="rotate(0)"><tspan id="SvgjsTspan2237" dy="16" x="211"><tspan id="SvgjsTspan2238" style="text-decoration:;">initializeBean()方法,初始化bean</tspan></tspan></text></g></g><g id="SvgjsG2239" transform="translate(53.32497978210449,880.7999267578125)"><path id="SvgjsPath2240" d="M 0 4Q 0 0 4 0L 389.12500381469727 0Q 393.12500381469727 0 393.12500381469727 4L 393.12500381469727 159.4000244140625Q 393.12500381469727 163.4000244140625 389.12500381469727 163.4000244140625L 4 163.4000244140625Q 0 163.4000244140625 0 159.4000244140625Z" stroke="#323232" stroke-width="2" fill-opacity="1" fill="#99ffff"></path><g id="SvgjsG2241"><text id="SvgjsText2242" font-family="微软雅黑" text-anchor="middle" font-size="13px" width="351" fill="#323232" font-weight="400" align="middle" anchor="middle" family="微软雅黑" size="13px" weight="400" font-style="" y="2.721430315290177" transform="rotate(0)"><tspan id="SvgjsTspan2243" dy="16" x="197"><tspan id="SvgjsTspan2244" style="text-decoration:;">回调所有实现了postProcessBeforeInitialization()方法的方法</tspan></tspan></text></g></g><g id="SvgjsG2245" transform="translate(124.38748168945312,24.99995231628418)"><path id="SvgjsPath2246" d="M 10.666666666666666 0L 240.33333333333334 0C 254.55555555555554 0 254.55555555555554 32 240.33333333333334 32L 10.666666666666666 32C -3.5555555555555554 32 -3.5555555555555554 0 10.666666666666666 0Z" stroke="#323232" stroke-width="2" fill-opacity="1" fill="#ffffff"></path><g id="SvgjsG2247"><text id="SvgjsText2248" font-family="微软雅黑" text-anchor="middle" font-size="13px" width="190" fill="#323232" font-weight="400" align="middle" anchor="middle" family="微软雅黑" size="13px" weight="400" font-style="" y="6.05" transform="rotate(0)"><tspan id="SvgjsTspan2249" dy="16" x="125.5"><tspan id="SvgjsTspan2250" style="text-decoration:;">调用容器的this()方法,实例化容器</tspan></tspan></text></g></g><g id="SvgjsG2251" transform="translate(65.88748168945312,82.99995231628418)"><path id="SvgjsPath2252" d="M 11.333333333333334 0L 356.6666666666667 0C 371.77777777777777 0 371.77777777777777 34 356.6666666666667 34L 11.333333333333334 34C -3.777777777777778 34 -3.777777777777778 0 11.333333333333334 0Z" stroke="#323232" stroke-width="2" fill-opacity="1" fill="#ffffff"></path><g id="SvgjsG2253"><text id="SvgjsText2254" font-family="微软雅黑" text-anchor="middle" font-size="13px" width="318" fill="#323232" font-weight="400" align="middle" anchor="middle" family="微软雅黑" size="13px" weight="400" font-style="" y="7.05" transform="rotate(0)"><tspan id="SvgjsTspan2255" dy="16" x="184"><tspan id="SvgjsTspan2256" style="text-decoration:;">调用register()方法,将指定传入的类解析并注册到容器中</tspan></tspan></text></g></g><g id="SvgjsG2257" transform="translate(71.88748168945312,140.19997215270996)"><path id="SvgjsPath2258" d="M 11.19999885559082 0L 344.8000011444092 0C 359.7333329518636 0 359.7333329518636 33.59999656677246 344.8000011444092 33.59999656677246L 11.19999885559082 33.59999656677246C -3.733332951863607 33.59999656677246 -3.733332951863607 0 11.19999885559082 0Z" stroke="#323232" stroke-width="2" fill-opacity="1" fill="#ffffff"></path><g id="SvgjsG2259"><text id="SvgjsText2260" font-family="微软雅黑" text-anchor="middle" font-size="13px" width="326" fill="#323232" font-weight="400" align="middle" anchor="middle" family="微软雅黑" size="13px" weight="400" font-style="" y="6.84999828338623" transform="rotate(0)"><tspan id="SvgjsTspan2261" dy="16" x="178"><tspan id="SvgjsTspan2262" style="text-decoration:;">实例化实现了BeanFactoryPostProcessors接口的实现类</tspan></tspan></text></g></g><g id="SvgjsG2263" transform="translate(99.14997863769531,384.2499694824219)"><path id="SvgjsPath2264" d="M 11.183329264322916 0L 290.2916768391927 0C 305.2027825249566 0 305.2027825249566 33.54998779296875 290.2916768391927 33.54998779296875L 11.183329264322916 33.54998779296875C -3.727776421440972 33.54998779296875 -3.727776421440972 0 11.183329264322916 0Z" stroke="#323232" stroke-width="2" fill-opacity="1" fill="#ff9999"></path><g id="SvgjsG2265"><text id="SvgjsText2266" font-family="微软雅黑" text-anchor="middle" font-size="13px" width="250" fill="#323232" font-weight="400" align="middle" anchor="middle" family="微软雅黑" size="13px" weight="400" font-style="" y="6.824993896484375" transform="rotate(0)"><tspan id="SvgjsTspan2267" dy="16" x="151"><tspan id="SvgjsTspan2268" style="text-decoration:;">回调postProcessBeforeInstantiation()方法</tspan></tspan></text></g></g><g id="SvgjsG2269" transform="translate(63.887481689453125,201.79996871948242)"><path id="SvgjsPath2270" d="M 10.666666666666666 0L 361.3333333333333 0C 375.55555555555554 0 375.55555555555554 32 361.3333333333333 32L 10.666666666666666 32C -3.5555555555555554 32 -3.5555555555555554 0 10.666666666666666 0Z" stroke="#323232" stroke-width="2" fill-opacity="1" fill="#ff9999"></path><g id="SvgjsG2271"><text id="SvgjsText2272" font-family="微软雅黑" text-anchor="middle" font-size="13px" width="325" fill="#323232" font-weight="400" align="middle" anchor="middle" family="微软雅黑" size="13px" weight="400" font-style="" y="6.05" transform="rotate(0)"><tspan id="SvgjsTspan2273" dy="16" x="186"><tspan id="SvgjsTspan2274" style="text-decoration:;">排序后并回调postProcessBeanDefinitionRegistry()方法</tspan></tspan></text></g></g><g id="SvgjsG2275" transform="translate(79.38748168945312,258.9999523162842)"><path id="SvgjsPath2276" d="M 12.066660563151041 0L 328.93333943684894 0C 345.02222018771704 0 345.02222018771704 36.199981689453125 328.93333943684894 36.199981689453125L 12.066660563151041 36.199981689453125C -4.022220187717013 36.199981689453125 -4.022220187717013 0 12.066660563151041 0Z" stroke="#323232" stroke-width="2" fill-opacity="1" fill="#ffffff"></path><g id="SvgjsG2277"><text id="SvgjsText2278" font-family="微软雅黑" text-anchor="middle" font-size="13px" width="274" fill="#323232" font-weight="400" align="middle" anchor="middle" family="微软雅黑" size="13px" weight="400" font-style="" y="0.14999084472656254" transform="rotate(0)"><tspan id="SvgjsTspan2279" dy="16" x="170.5"><tspan id="SvgjsTspan2280" style="text-decoration:;">注册并实例化所有的后置处理器(即</tspan></tspan><tspan id="SvgjsTspan2281" dy="16" x="170.5"><tspan id="SvgjsTspan2282" style="text-decoration:;">InstantiationAwareBeanPostProcessor的子类)</tspan></tspan></text></g></g><g id="SvgjsG2283" transform="translate(104.38748168945312,441.3999767303467)"><path id="SvgjsPath2284" d="M 11.399993896484375 0L 279.6000061035156 0C 294.7999979654948 0 294.7999979654948 34.199981689453125 279.6000061035156 34.199981689453125L 11.399993896484375 34.199981689453125C -3.7999979654947915 34.199981689453125 -3.7999979654947915 0 11.399993896484375 0Z" stroke="#323232" stroke-width="2" fill-opacity="1" fill="#ffffff"></path><g id="SvgjsG2285"><text id="SvgjsText2286" font-family="微软雅黑" text-anchor="middle" font-size="13px" width="236" fill="#323232" font-weight="400" align="middle" anchor="middle" family="微软雅黑" size="13px" weight="400" font-style="" y="7.149990844726562" transform="rotate(0)"><tspan id="SvgjsTspan2287" dy="16" x="145.5"><tspan id="SvgjsTspan2288" style="text-decoration:;">实例化单实例bean(调用bean的构造方法)</tspan></tspan></text></g></g><g id="SvgjsG2289" transform="translate(61.387481689453125,497.5999584197998)"><path id="SvgjsPath2290" d="M 12.733327229817709 0L 364.2666727701823 0C 381.2444424099392 0 381.2444424099392 38.199981689453125 364.2666727701823 38.199981689453125L 12.733327229817709 38.199981689453125C -4.244442409939237 38.199981689453125 -4.244442409939237 0 12.733327229817709 0Z" stroke="#323232" stroke-width="2" fill-opacity="1" fill="#ff9999"></path><g id="SvgjsG2291"><text id="SvgjsText2292" font-family="微软雅黑" text-anchor="middle" font-size="13px" width="270" fill="#323232" font-weight="400" align="middle" anchor="middle" family="微软雅黑" size="13px" weight="400" font-style="" y="9.149990844726563" transform="rotate(0)"><tspan id="SvgjsTspan2293" dy="16" x="188.5"><tspan id="SvgjsTspan2294" style="text-decoration:;">回调postProcessMergedBeanDefinition()方法</tspan></tspan></text></g></g><g id="SvgjsG2295" transform="translate(107.01248168945312,592.3999633789062)"><path id="SvgjsPath2296" d="M 11.333328247070312 0L 274.4166717529297 0C 289.52777608235675 0 289.52777608235675 33.99998474121094 274.4166717529297 33.99998474121094L 11.333328247070312 33.99998474121094C -3.777776082356771 33.99998474121094 -3.777776082356771 0 11.333328247070312 0Z" stroke="#323232" stroke-width="2" fill-opacity="1" fill="#ff9999"></path><g id="SvgjsG2297"><text id="SvgjsText2298" font-family="微软雅黑" text-anchor="middle" font-size="13px" width="239" fill="#323232" font-weight="400" align="middle" anchor="middle" family="微软雅黑" size="13px" weight="400" font-style="" y="7.049992370605469" transform="rotate(0)"><tspan id="SvgjsTspan2299" dy="16" x="143"><tspan id="SvgjsTspan2300" style="text-decoration:;">回调postProcessAfterInstantiation()方法</tspan></tspan></text></g></g><g id="SvgjsG2301" transform="translate(112.26248168945312,649.3999633789062)"><path id="SvgjsPath2302" d="M 9.999994913736979 0L 265.250005086263 0C 278.58333163791235 0 278.58333163791235 29.999984741210938 265.250005086263 29.999984741210938L 9.999994913736979 29.999984741210938C -3.3333316379123263 29.999984741210938 -3.3333316379123263 0 9.999994913736979 0Z" stroke="#323232" stroke-width="2" fill-opacity="1" fill="#ff99ff"></path><g id="SvgjsG2303"><text id="SvgjsText2304" font-family="微软雅黑" text-anchor="middle" font-size="13px" width="143" fill="#323232" font-weight="400" align="middle" anchor="middle" family="微软雅黑" size="13px" weight="400" font-style="" y="5.049992370605469" transform="rotate(0)"><tspan id="SvgjsTspan2305" dy="16" x="138"><tspan id="SvgjsTspan2306" style="text-decoration:;">执行默认的自动属性注入</tspan></tspan></text></g></g><g id="SvgjsG2307" transform="translate(111.26248168945312,702.6999731063843)"><path id="SvgjsPath2308" d="M 13.899991671244303 0L 263.3500083287557 0C 281.8833305570814 0 281.8833305570814 41.69997501373291 263.3500083287557 41.69997501373291L 13.899991671244303 41.69997501373291C -4.633330557081434 41.69997501373291 -4.633330557081434 0 13.899991671244303 0Z" stroke="#323232" stroke-width="2" fill-opacity="1" fill="#ff9999"></path><g id="SvgjsG2309"><text id="SvgjsText2310" font-family="微软雅黑" text-anchor="middle" font-size="13px" width="252" fill="#323232" font-weight="400" align="middle" anchor="middle" family="微软雅黑" size="13px" weight="400" font-style="" y="2.899987506866455" transform="rotate(0)"><tspan id="SvgjsTspan2311" dy="16" x="139"><tspan id="SvgjsTspan2312" style="text-decoration:;">回调postProcessProperties()方法,可以修改</tspan></tspan><tspan id="SvgjsTspan2313" dy="16" x="139"><tspan id="SvgjsTspan2314" style="text-decoration:;">自动注入的属性值</tspan></tspan></text></g></g><g id="SvgjsG2315" transform="translate(78.01248168945312,814.1499581336975)"><path id="SvgjsPath2316" d="M 13.766655286153158 0L 329.98334471384686 0C 348.3388850953844 0 348.3388850953844 41.29996585845947 329.98334471384686 41.29996585845947L 13.766655286153158 41.29996585845947C -4.588885095384386 41.29996585845947 -4.588885095384386 0 13.766655286153158 0Z" stroke="#323232" stroke-width="2" fill-opacity="1" fill="#9999ff"></path><g id="SvgjsG2317"><text id="SvgjsText2318" font-family="微软雅黑" text-anchor="middle" font-size="13px" width="310" fill="#323232" font-weight="400" align="middle" anchor="middle" family="微软雅黑" size="13px" weight="400" font-style="" y="2.699982929229736" transform="rotate(0)"><tspan id="SvgjsTspan2319" dy="16" x="172"><tspan id="SvgjsTspan2320" style="text-decoration:;">调用实现了Aware接口的方法,如BeanFactoryAware和</tspan></tspan><tspan id="SvgjsTspan2321" dy="16" x="172"><tspan id="SvgjsTspan2322" style="text-decoration:;">BeanNameAware接口</tspan></tspan></text></g></g><g id="SvgjsG2323" transform="translate(88.76248931884766,981.9999389648438)"><path id="SvgjsPath2324" d="M 15.066670735677084 0L 307.1833140055339 0C 327.27220831976996 0 327.27220831976996 45.20001220703125 307.1833140055339 45.20001220703125L 15.066670735677084 45.20001220703125C -5.022223578559028 45.20001220703125 -5.022223578559028 0 15.066670735677084 0Z" stroke="#323232" stroke-width="2" fill-opacity="1" fill="#9999ff"></path><g id="SvgjsG2325"><text id="SvgjsText2326" font-family="微软雅黑" text-anchor="middle" font-size="13px" width="266" fill="#323232" font-weight="400" align="middle" anchor="middle" family="微软雅黑" size="13px" weight="400" font-style="" y="4.650006103515625" transform="rotate(0)"><tspan id="SvgjsTspan2327" dy="16" x="161.5"><tspan id="SvgjsTspan2328" style="text-decoration:;">调用invokeAwareInterfaces方法来执行实现了</tspan></tspan><tspan id="SvgjsTspan2329" dy="16" x="161.5"><tspan id="SvgjsTspan2330" style="text-decoration:;">ApplicationContextAware等接口的方法</tspan></tspan></text></g></g><g id="SvgjsG2331" transform="translate(86.01248168945312,1075.7999877929688)"><path id="SvgjsPath2332" d="M 15 0L 312.75 0C 332.75 0 332.75 45 312.75 45L 15 45C -5 45 -5 0 15 0Z" stroke="#323232" stroke-width="2" fill-opacity="1" fill="#ff99ff"></path><g id="SvgjsG2333"><text id="SvgjsText2334" font-family="微软雅黑" text-anchor="middle" font-size="13px" width="297" fill="#323232" font-weight="400" align="middle" anchor="middle" family="微软雅黑" size="13px" weight="400" font-style="" y="4.55" transform="rotate(0)"><tspan id="SvgjsTspan2335" dy="16" x="164"><tspan id="SvgjsTspan2336" style="text-decoration:;"> 执行invokeInitMethods方法,回调实现了InitialBean</tspan></tspan><tspan id="SvgjsTspan2337" dy="16" x="164"><tspan id="SvgjsTspan2338" style="text-decoration:;">接口的afterPropertiesSet方法</tspan></tspan></text></g></g><g id="SvgjsG2339" transform="translate(93.1374740600586,1146.7999877929688)"><path id="SvgjsPath2340" d="M 11.399983723958334 0L 302.10003153483075 0C 317.30000983344183 0 317.30000983344183 34.199951171875 302.10003153483075 34.199951171875L 11.399983723958334 34.199951171875C -3.799994574652778 34.199951171875 -3.799994574652778 0 11.399983723958334 0Z" stroke="#323232" stroke-width="2" fill-opacity="1" fill="#ff9999"></path><g id="SvgjsG2341"><text id="SvgjsText2342" font-family="微软雅黑" text-anchor="middle" font-size="13px" width="237" fill="#323232" font-weight="400" align="middle" anchor="middle" family="微软雅黑" size="13px" weight="400" font-style="" y="7.1499755859375" transform="rotate(0)"><tspan id="SvgjsTspan2343" dy="16" x="157"><tspan id="SvgjsTspan2344" style="text-decoration:;">回调postProcessAfterInitialization()方法</tspan></tspan></text></g></g><g id="SvgjsG2345" transform="translate(31.387481689453125,1240.9999389648438)"><path id="SvgjsPath2346" d="M 12.20001220703125 0L 424.79998779296875 0C 441.06667073567706 0 441.06667073567706 36.60003662109375 424.79998779296875 36.60003662109375L 12.20001220703125 36.60003662109375C -4.066670735677083 36.60003662109375 -4.066670735677083 0 12.20001220703125 0Z" stroke="#323232" stroke-width="2" fill-opacity="1" fill="#ff9999"></path><g id="SvgjsG2347"><text id="SvgjsText2348" font-family="微软雅黑" text-anchor="middle" font-size="13px" width="414" fill="#323232" font-weight="400" align="middle" anchor="middle" family="微软雅黑" size="13px" weight="400" font-style="" y="8.350018310546876" transform="rotate(0)"><tspan id="SvgjsTspan2349" dy="16" x="218.5"><tspan id="SvgjsTspan2350" style="text-decoration:;">回调SmartInitializingSingleton类型的afterSingletonsInstantiated()方法</tspan></tspan></text></g></g><g id="SvgjsG2351" transform="translate(102.0124740600586,1376.3999633789062)"><path id="SvgjsPath2352" d="M 19.333333333333332 0L 276.41668192545575 0C 302.1944597032335 0 302.1944597032335 58 276.41668192545575 58L 19.333333333333332 58C -6.444444444444444 58 -6.444444444444444 0 19.333333333333332 0Z" stroke="#323232" stroke-width="2" fill-opacity="1" fill="#ffffff"></path><g id="SvgjsG2353"><text id="SvgjsText2354" font-family="微软雅黑" text-anchor="middle" font-size="13px" width="88" fill="#323232" font-weight="400" align="middle" anchor="middle" family="微软雅黑" size="13px" weight="400" font-style="" y="19.05" transform="rotate(0)"><tspan id="SvgjsTspan2355" dy="16" x="148"><tspan id="SvgjsTspan2356" style="text-decoration:;">执行业务逻辑...</tspan></tspan></text></g></g><g id="SvgjsG2357" transform="translate(51.762481689453125,1513.3999633789062)"><path id="SvgjsPath2358" d="M 20.599995930989582 0L 375.65000406901044 0C 403.11666531032984 0 403.11666531032984 61.79998779296875 375.65000406901044 61.79998779296875L 20.599995930989582 61.79998779296875C -6.866665310329861 61.79998779296875 -6.866665310329861 0 20.599995930989582 0Z" stroke="#323232" stroke-width="2" fill-opacity="1" fill="#ff9999"></path><g id="SvgjsG2359"><text id="SvgjsText2360" font-family="微软雅黑" text-anchor="middle" font-size="13px" width="366" fill="#323232" font-weight="400" align="middle" anchor="middle" family="微软雅黑" size="13px" weight="400" font-style="" y="4.949993896484375" transform="rotate(0)"><tspan id="SvgjsTspan2361" dy="16" x="198.5"><tspan id="SvgjsTspan2362" style="text-decoration:;">回调InitDestroyAnnotationBeanPostProcessor后置处理器的</tspan></tspan><tspan id="SvgjsTspan2363" dy="16" x="198.5"><tspan id="SvgjsTspan2364" style="text-decoration:;">postProcessBeforeDestruction()方法,执行标注有@PreDestroy</tspan></tspan><tspan id="SvgjsTspan2365" dy="16" x="198.5"><tspan id="SvgjsTspan2366" style="text-decoration:;">注解的方法</tspan></tspan></text></g></g><g id="SvgjsG2367" transform="translate(27.512481689453125,1307.5999755859375)"><path id="SvgjsPath2368" d="M 12.666666666666666 0L 432.0833333333333 0C 448.97222222222223 0 448.97222222222223 38 432.0833333333333 38L 12.666666666666666 38C -4.222222222222222 38 -4.222222222222222 0 12.666666666666666 0Z" stroke="#323232" stroke-width="2" fill-opacity="1" fill="#9999ff"></path><g id="SvgjsG2369"><text id="SvgjsText2370" font-family="微软雅黑" text-anchor="middle" font-size="13px" width="370" fill="#323232" font-weight="400" align="middle" anchor="middle" family="微软雅黑" size="13px" weight="400" font-style="" y="9.05" transform="rotate(0)"><tspan id="SvgjsTspan2371" dy="16" x="222.5"><tspan id="SvgjsTspan2372" style="text-decoration:;">调用实现了ApplicationListener接口的onApplicationEvent()方法</tspan></tspan></text></g></g><g id="SvgjsG2373" transform="translate(92.76248168945312,1599.199951171875)"><path id="SvgjsPath2374" d="M 14.066691080729166 0L 300.1833089192708 0C 318.93889702690973 0 318.93889702690973 42.2000732421875 300.1833089192708 42.2000732421875L 14.066691080729166 42.2000732421875C -4.688897026909722 42.2000732421875 -4.688897026909722 0 14.066691080729166 0Z" stroke="#323232" stroke-width="2" fill-opacity="1" fill="#9999ff"></path><g id="SvgjsG2375"><text id="SvgjsText2376" font-family="微软雅黑" text-anchor="middle" font-size="13px" width="280" fill="#323232" font-weight="400" align="middle" anchor="middle" family="微软雅黑" size="13px" weight="400" font-style="" y="11.15003662109375" transform="rotate(0)"><tspan id="SvgjsTspan2377" dy="16" x="157.5"><tspan id="SvgjsTspan2378" style="text-decoration:;">调用实现了DisposableBean接口的destroy()方法</tspan></tspan></text></g></g><g id="SvgjsG2379" transform="translate(260.36872482299805,1439.199951171875)"><path id="SvgjsPath2380" d="M 0 0L 188.53750610351562 0L 188.53750610351562 42.20001220703125L 0 42.20001220703125Z" stroke="none" fill="none"></path><g id="SvgjsG2381"><text id="SvgjsText2382" font-family="微软雅黑" text-anchor="middle" font-size="13px" width="177" fill="#ff6666" font-weight="700" align="middle" anchor="middle" family="微软雅黑" size="13px" weight="700" font-style="" y="3.150006103515625" transform="rotate(0)"><tspan id="SvgjsTspan2383" dy="16" x="94.5"><tspan id="SvgjsTspan2384" style="text-decoration:;">循环所有的单实例bean,对应每</tspan></tspan><tspan id="SvgjsTspan2385" dy="16" x="94.5"><tspan id="SvgjsTspan2386" style="text-decoration:;">个bean都尝试执行这两个回调</tspan></tspan></text></g></g><g id="SvgjsG2387"><path id="SvgjsPath2388" d="M249.88748168945312 56.99995231628418L249.88748168945312 69.99995231628418L249.88748168945312 69.99995231628418L249.88748168945312 82.99995231628418" stroke="#323232" stroke-width="2" fill="none" marker-end="url(#SvgjsMarker2389)"></path></g><g id="SvgjsG2391"><path id="SvgjsPath2392" d="M249.88748168945312 116.99995231628418L249.88748168945312 128.59996223449707L249.88748168945312 128.59996223449707L249.88748168945312 140.19997215270996" stroke="#323232" stroke-width="2" fill="none" marker-end="url(#SvgjsMarker2393)"></path></g><g id="SvgjsG2395"><path id="SvgjsPath2396" d="M249.88748168945312 173.79996871948242L249.88748168945312 187.79996871948242L249.88748168945312 187.79996871948242L249.88748168945312 201.79996871948242" stroke="#323232" stroke-width="2" fill="none" marker-end="url(#SvgjsMarker2397)"></path></g><g id="SvgjsG2399"><path id="SvgjsPath2400" d="M249.88748168945312 233.79996871948242L249.88748168945312 246.3999605178833L249.88748168945312 246.3999605178833L249.88748168945312 258.9999523162842" stroke="#323232" stroke-width="2" fill="none" marker-end="url(#SvgjsMarker2401)"></path></g><g id="SvgjsG2403"><path id="SvgjsPath2404" d="M249.88748168945312 295.1999340057373L249.88748168945312 327.89994621276855L249.88748168945312 327.89994621276855L249.88748168945312 360.5999584197998" stroke="#323232" stroke-width="2" fill="none" marker-end="url(#SvgjsMarker2405)"></path></g><g id="SvgjsG2407"><path id="SvgjsPath2408" d="M249.88748168945312 535.7999401092529L249.88748168945312 547.499945640564L249.88748168945312 547.499945640564L249.88748168945312 559.199951171875" stroke="#323232" stroke-width="2" fill="none" marker-end="url(#SvgjsMarker2409)"></path></g><g id="SvgjsG2411"><path id="SvgjsPath2412" d="M249.88748168945312 626.3999481201172L249.88748168945312 637.8999557495117L249.88748168945312 637.8999557495117L249.88748168945312 649.3999633789062" stroke="#323232" stroke-width="2" fill="none" marker-end="url(#SvgjsMarker2413)"></path></g><g id="SvgjsG2415"><path id="SvgjsPath2416" d="M249.88748168945312 679.3999481201172L249.88748168945312 691.0499606132507L249.88748168945312 691.0499606132507L249.88748168945312 702.6999731063843" stroke="#323232" stroke-width="2" fill="none" marker-end="url(#SvgjsMarker2417)"></path></g><g id="SvgjsG2419"><path id="SvgjsPath2420" d="M249.88748168945312 1120.7999877929688L249.88748168945312 1133.7999877929688L249.88748168945312 1133.7999877929688L249.88748168945312 1146.7999877929688" stroke="#323232" stroke-width="2" fill="none" marker-end="url(#SvgjsMarker2421)"></path></g><g id="SvgjsG2423"><path id="SvgjsPath2424" d="M249.88748168945312 1214.7999877929688L249.88748168945312 1227.8999633789062L249.88748168945312 1227.8999633789062L249.88748168945312 1240.9999389648438" stroke="#323232" stroke-width="2" fill="none" marker-end="url(#SvgjsMarker2425)"></path></g><g id="SvgjsG2427"><path id="SvgjsPath2428" d="M249.88748168945312 1277.5999755859375L249.88748168945312 1292.5999755859375L249.88748168945312 1292.5999755859375L249.88748168945312 1307.5999755859375" stroke="#323232" stroke-width="2" fill="none" marker-end="url(#SvgjsMarker2429)"></path></g><g id="SvgjsG2431"><path id="SvgjsPath2432" d="M249.88748168945312 1345.5999755859375L249.88748168945312 1360.9999694824219L249.88748168945312 1360.9999694824219L249.88748168945312 1376.3999633789062" stroke="#323232" stroke-width="2" fill="none" marker-end="url(#SvgjsMarker2433)"></path></g><g id="SvgjsG2435"><path id="SvgjsPath2436" d="M249.88748168945312 1434.3999633789062L249.88748168945312 1457.8999633789062L249.88748168945312 1457.8999633789062L249.88748168945312 1481.3999633789062" stroke="#323232" stroke-width="2" fill="none" marker-end="url(#SvgjsMarker2437)"></path></g><g id="SvgjsG2439"><path id="SvgjsPath2440" d="M249.88748168945312 1575.199951171875L249.88748168945312 1587.199951171875L249.88748168945312 1587.199951171875L249.88748168945312 1599.199951171875" stroke="#323232" stroke-width="2" fill="none" marker-end="url(#SvgjsMarker2441)"></path></g><g id="SvgjsG2443" transform="translate(255.8874740600586,301.3999366760254)"><path id="SvgjsPath2444" d="M 0 0L 197.50000762939453 0L 197.50000762939453 59.200021743774414L 0 59.200021743774414Z" stroke="none" fill="none"></path><g id="SvgjsG2445"><text id="SvgjsText2446" font-family="微软雅黑" text-anchor="middle" font-size="13px" width="176" fill="#ff6666" font-weight="700" align="middle" anchor="middle" family="微软雅黑" size="13px" weight="700" font-style="" y="3.650010871887207" transform="rotate(0)"><tspan id="SvgjsTspan2447" dy="16" x="99"><tspan id="SvgjsTspan2448" style="text-decoration:;">循环所有的单实例bean,并调用</tspan></tspan><tspan id="SvgjsTspan2449" dy="16" x="99"><tspan id="SvgjsTspan2450" style="text-decoration:;">doCreateBean()方法,</tspan></tspan><tspan id="SvgjsTspan2451" dy="16" x="99"><tspan id="SvgjsTspan2452" style="text-decoration:;">创建所有的单实例bean</tspan></tspan></text></g></g><g id="SvgjsG2453" transform="translate(181.44995880126953,1703.2999877929688)"><path id="SvgjsPath2454" d="M 6.666666666666667 0L 26.458348592122395 0C 35.347237481011284 0 35.347237481011284 20 26.458348592122395 20L 6.666666666666667 20C -2.2222222222222223 20 -2.2222222222222223 0 6.666666666666667 0Z" stroke="#323232" stroke-width="2" fill-opacity="1" fill="#ff9999"></path><g id="SvgjsG2455"><text id="SvgjsText2456" font-family="微软雅黑" text-anchor="middle" font-size="13px" width="0" fill="#ffffff" font-weight="400" align="middle" anchor="middle" family="微软雅黑" size="13px" weight="400" font-style="" y="0.050000000000000044" transform="rotate(0)"></text></g></g><g id="SvgjsG2457" transform="translate(223.9499740600586,1699)"><path id="SvgjsPath2458" d="M 0 0L 106.12500762939453 0L 106.12500762939453 28.5999755859375L 0 28.5999755859375Z" stroke="none" fill="none"></path><g id="SvgjsG2459"><text id="SvgjsText2460" font-family="微软雅黑" text-anchor="middle" font-size="13px" width="91" fill="#323232" font-weight="400" align="middle" anchor="middle" family="微软雅黑" size="13px" weight="400" font-style="" y="4.34998779296875" transform="rotate(0)"><tspan id="SvgjsTspan2461" dy="16" x="53.5"><tspan id="SvgjsTspan2462" style="text-decoration:;">后置处理器回调</tspan></tspan></text></g></g><g id="SvgjsG2463" transform="translate(181.44995880126953,1734.699951171875)"><path id="SvgjsPath2464" d="M 6.666666666666667 0L 26.458348592122395 0C 35.347237481011284 0 35.347237481011284 20 26.458348592122395 20L 6.666666666666667 20C -2.2222222222222223 20 -2.2222222222222223 0 6.666666666666667 0Z" stroke="#323232" stroke-width="2" fill-opacity="1" fill="#9999ff"></path><g id="SvgjsG2465"><text id="SvgjsText2466" font-family="微软雅黑" text-anchor="middle" font-size="13px" width="0" fill="#323232" font-weight="400" align="middle" anchor="middle" family="微软雅黑" size="13px" weight="400" font-style="" y="0.050000000000000044" transform="rotate(0)"></text></g></g><g id="SvgjsG2467" transform="translate(226.9499740600586,1732.199951171875)"><path id="SvgjsPath2468" d="M 0 0L 103.12500762939453 0L 103.12500762939453 25L 0 25Z" stroke="none" fill="none"></path><g id="SvgjsG2469"><text id="SvgjsText2470" font-family="微软雅黑" text-anchor="middle" font-size="13px" width="91" fill="#323232" font-weight="400" align="middle" anchor="middle" family="微软雅黑" size="13px" weight="400" font-style="" y="2.55" transform="rotate(0)"><tspan id="SvgjsTspan2471" dy="16" x="52"><tspan id="SvgjsTspan2472" style="text-decoration:;">其他接口的回调</tspan></tspan></text></g></g><g id="SvgjsG2473" transform="translate(421.3156089782715,651.699951171875)"><path id="SvgjsPath2474" d="M 0 12.700004577636719L 12.700004577636719 0L 12.700004577636719 8.382003021240235L 106.62500762939453 8.382003021240235L 106.62500762939453 17.018006134033204L 12.700004577636719 17.018006134033204L 12.700004577636719 25.400009155273438L 0 12.700004577636719Z" stroke="#323232" stroke-width="2" fill-opacity="1" fill="#ffffff"></path><g id="SvgjsG2475"><text id="SvgjsText2476" font-family="微软雅黑" text-anchor="middle" font-size="13px" width="0" fill="#323232" font-weight="400" align="middle" anchor="middle" family="微软雅黑" size="13px" weight="400" font-style="" y="2.7500045776367203" transform="rotate(0)"></text></g></g><g id="SvgjsG2477" transform="translate(532.940616607666,646.8999557495117)"><path id="SvgjsPath2478" d="M 0 0L 96 0L 96 35L 0 35Z" stroke="#323232" stroke-width="2" fill-opacity="1" fill="#ffffff"></path><g id="SvgjsG2479"><text id="SvgjsText2480" font-family="微软雅黑" text-anchor="middle" font-size="13px" width="52" fill="#323232" font-weight="400" align="middle" anchor="middle" family="微软雅黑" size="13px" weight="400" font-style="" y="7.55" transform="rotate(0)"><tspan id="SvgjsTspan2481" dy="16" x="48"><tspan id="SvgjsTspan2482" style="text-decoration:;">自动注入</tspan></tspan></text></g></g><g id="SvgjsG2483" transform="translate(76.24372863769531,909.4999389648438)"><path id="SvgjsPath2484" d="M 18.23333740234375 0L 329.0541687011719 0C 353.3652852376302 0 353.3652852376302 54.70001220703125 329.0541687011719 54.70001220703125L 18.23333740234375 54.70001220703125C -6.077779134114583 54.70001220703125 -6.077779134114583 0 18.23333740234375 0Z" stroke="#323232" stroke-width="2" fill-opacity="1" fill="#ff9999"></path><g id="SvgjsG2485"><text id="SvgjsText2486" font-family="微软雅黑" text-anchor="middle" font-size="13px" width="286" fill="#323232" font-weight="400" align="middle" anchor="middle" family="微软雅黑" size="13px" weight="400" font-style="" y="1.400006103515625" transform="rotate(0)"><tspan id="SvgjsTspan2487" dy="16" x="174"><tspan id="SvgjsTspan2488" style="text-decoration:;">回调postProcessBeforeInitialization()方法来处理</tspan></tspan><tspan id="SvgjsTspan2489" dy="16" x="174"><tspan id="SvgjsTspan2490" style="text-decoration:;">@PostStructure注解---</tspan></tspan><tspan id="SvgjsTspan2491" dy="16" x="174"><tspan id="SvgjsTspan2492" style="text-decoration:;">(InitDestroyAnnotationBeanPostProcessor)</tspan></tspan></text></g></g><g id="SvgjsG2493"><path id="SvgjsPath2494" d="M249.88748168945312 855.449923992157L249.88748168945312 868.1249253749847L249.88748168945312 868.1249253749847L249.88748168945312 880.7999267578125" stroke="#323232" stroke-width="2" fill="none" marker-end="url(#SvgjsMarker2495)"></path></g><g id="SvgjsG2497"><path id="SvgjsPath2498" d="M249.88748168945312 1044.199951171875L249.88748168945312 1059.9999694824219L249.88748168945312 1059.9999694824219L249.88748168945312 1075.7999877929688" stroke="#323232" stroke-width="2" fill="none" marker-end="url(#SvgjsMarker2499)"></path></g><g id="SvgjsG2501" transform="translate(413.7624740600586,445.7999629974365)"><path id="SvgjsPath2502" d="M 0 12.700004577636719L 12.700004577636719 0L 12.700004577636719 8.382003021240235L 106.62500762939453 8.382003021240235L 106.62500762939453 17.018006134033204L 12.700004577636719 17.018006134033204L 12.700004577636719 25.400009155273438L 0 12.700004577636719Z" stroke="#323232" stroke-width="2" fill-opacity="1" fill="#ffffff"></path><g id="SvgjsG2503"><text id="SvgjsText2504" font-family="微软雅黑" text-anchor="middle" font-size="13px" width="0" fill="#323232" font-weight="400" align="middle" anchor="middle" family="微软雅黑" size="13px" weight="400" font-style="" y="2.7500045776367203" transform="rotate(0)"></text></g></g><g id="SvgjsG2505" transform="translate(529.2624969482422,1080.7999877929688)"><path id="SvgjsPath2506" d="M 0 0L 96 0L 96 35L 0 35Z" stroke="#323232" stroke-width="2" fill-opacity="1" fill="#ffffff"></path><g id="SvgjsG2507"><text id="SvgjsText2508" font-family="微软雅黑" text-anchor="middle" font-size="13px" width="68" fill="#323232" font-weight="400" align="middle" anchor="middle" family="微软雅黑" size="13px" weight="400" font-style="" y="7.55" transform="rotate(0)"><tspan id="SvgjsTspan2509" dy="16" x="48"><tspan id="SvgjsTspan2510" style="text-decoration:;">bean初始化</tspan></tspan></text></g></g><g id="SvgjsG2511" transform="translate(417.63748931884766,1085.599983215332)"><path id="SvgjsPath2512" d="M 0 12.700004577636719L 12.700004577636719 0L 12.700004577636719 8.382003021240235L 106.62500762939453 8.382003021240235L 106.62500762939453 17.018006134033204L 12.700004577636719 17.018006134033204L 12.700004577636719 25.400009155273438L 0 12.700004577636719Z" stroke="#323232" stroke-width="2" fill-opacity="1" fill="#ffffff"></path><g id="SvgjsG2513"><text id="SvgjsText2514" font-family="微软雅黑" text-anchor="middle" font-size="13px" width="0" fill="#323232" font-weight="400" align="middle" anchor="middle" family="微软雅黑" size="13px" weight="400" font-style="" y="2.7500045776367203" transform="rotate(0)"></text></g></g><g id="SvgjsG2515"><path id="SvgjsPath2516" d="M249.88748168945312 417.7999572753906L249.88748168945312 429.59996700286865L249.88748168945312 429.59996700286865L249.88748168945312 441.3999767303467" stroke="#323232" stroke-width="2" fill="none" marker-end="url(#SvgjsMarker2517)"></path></g><g id="SvgjsG2519"><path id="SvgjsPath2520" d="M249.88748168945312 475.5999584197998L249.88748168945312 486.5999584197998L249.88748168945312 486.5999584197998L249.88748168945312 497.5999584197998" stroke="#323232" stroke-width="2" fill="none" marker-end="url(#SvgjsMarker2521)"></path></g><g id="SvgjsG2523"><path id="SvgjsPath2524" d="M400.62498474121094 401.02496337890625L577.2624969482422 441.7499666213989" stroke="#323232" stroke-width="2" fill="none" marker-end="url(#SvgjsMarker2525)"></path></g><g id="SvgjsG2527"><path id="SvgjsPath2528" d="M392.7624816894531 609.3999557495117L575.7985028076172 475.24996852874756" stroke="#323232" stroke-width="2" fill="none" marker-end="url(#SvgjsMarker2529)"></path></g><g id="SvgjsG2531" transform="translate(529.2624969482422,441.7499666213989)"><path id="SvgjsPath2532" d="M 0 0L 96 0L 96 33.50000190734863L 0 33.50000190734863Z" stroke="#323232" stroke-width="2" fill-opacity="1" fill="#ffffff"></path><g id="SvgjsG2533"><text id="SvgjsText2534" font-family="微软雅黑" text-anchor="middle" font-size="13px" width="68" fill="#323232" font-weight="400" align="middle" anchor="middle" family="微软雅黑" size="13px" weight="400" font-style="" y="6.800000953674316" transform="rotate(0)"><tspan id="SvgjsTspan2535" dy="16" x="48"><tspan id="SvgjsTspan2536" style="text-decoration:;">bean实例化</tspan></tspan></text></g></g><g id="SvgjsG2537" transform="translate(468.3874816894531,401.9999694824219)"><path id="SvgjsPath2538" d="M 0 0L 100.73126220703125 0L 100.73126220703125 24L 0 24Z" stroke="none" fill="none"></path><g id="SvgjsG2539"><text id="SvgjsText2540" font-family="微软雅黑" text-anchor="middle" font-size="13px" width="78" fill="#ff9999" font-weight="700" align="middle" anchor="middle" family="微软雅黑" size="13px" weight="700" font-style="" y="2.05" transform="rotate(0)"><tspan id="SvgjsTspan2541" dy="16" x="50.5"><tspan id="SvgjsTspan2542" style="text-decoration:;">实例化前回调</tspan></tspan></text></g></g><g id="SvgjsG2543" transform="translate(468.3874816894531,508.9999694824219)"><path id="SvgjsPath2544" d="M 0 0L 100.73126220703125 0L 100.73126220703125 26.799970626831055L 0 26.799970626831055Z" stroke="none" fill="none"></path><g id="SvgjsG2545"><text id="SvgjsText2546" font-family="微软雅黑" text-anchor="middle" font-size="13px" width="78" fill="#ff9999" font-weight="700" align="middle" anchor="middle" family="微软雅黑" size="13px" weight="700" font-style="" y="3.449985313415527" transform="rotate(0)"><tspan id="SvgjsTspan2547" dy="16" x="50.5"><tspan id="SvgjsTspan2548" style="text-decoration:;">实例化后回调</tspan></tspan></text></g></g><g id="SvgjsG2549"><path id="SvgjsPath2550" d="M423.53123474121094 936.8499450683594L577.2624969482422 1080.7999877929688" stroke="#323232" stroke-width="2" fill="none" marker-end="url(#SvgjsMarker2551)"></path></g><g id="SvgjsG2553"><path id="SvgjsPath2554" d="M406.63748931884766 1163.8999633789062L577.2624969482422 1115.7999877929688" stroke="#323232" stroke-width="2" fill="none" marker-end="url(#SvgjsMarker2555)"></path></g><g id="SvgjsG2557" transform="translate(474.7624816894531,981.9999389648438)"><path id="SvgjsPath2558" d="M 0 0L 100.73126220703125 0L 100.73126220703125 24L 0 24Z" stroke="none" fill="none"></path><g id="SvgjsG2559"><text id="SvgjsText2560" font-family="微软雅黑" text-anchor="middle" font-size="13px" width="78" fill="#ff9999" font-weight="700" align="middle" anchor="middle" family="微软雅黑" size="13px" weight="700" font-style="" y="2.05" transform="rotate(0)"><tspan id="SvgjsTspan2561" dy="16" x="50.5"><tspan id="SvgjsTspan2562" style="text-decoration:;">初始化前回调</tspan></tspan></text></g></g><g id="SvgjsG2563" transform="translate(474.7624816894531,1142.9999389648438)"><path id="SvgjsPath2564" d="M 0 0L 100.73126220703125 0L 100.73126220703125 24L 0 24Z" stroke="none" fill="none"></path><g id="SvgjsG2565"><text id="SvgjsText2566" font-family="微软雅黑" text-anchor="middle" font-size="13px" width="78" fill="#ff9999" font-weight="700" align="middle" anchor="middle" family="微软雅黑" size="13px" weight="700" font-style="" y="2.05" transform="rotate(0)"><tspan id="SvgjsTspan2567" dy="16" x="50.5"><tspan id="SvgjsTspan2568" style="text-decoration:;">初始化后回调</tspan></tspan></text></g></g></svg>